<svg width="328" height="316" viewBox="0 0 328 316" fill="none" xmlns="http://www.w3.org/2000/svg">
<path d="M78.5 2C81.371 1.30116 85.5 1.5 85.5 1.5L86 1.5C85.5 1.5 83.4401 3.82477 82 5.5C80.7271 6.98071 79 9.5 79 9.5C79 9.5 77.5 14 76.5 14H76C76 14 65.5 11.5 65 10C64.5 8.5 68.0431 6.54593 70.5 5C73.3241 3.22302 75.258 2.78914 78.5 2Z" fill="white"/>
<path d="M55.5 26C54.5 25 59 14.5 61.5 14C64 13.5 74.5 16 75 18C75.5 20 74.5 24.5 74.5 25.5C74.5 26.5 56.5 27 55.5 26Z" fill="white"/>
<path d="M54 38.5C54 38.5 53.2424 32.5 54 31C54.7576 29.5 74.5 27.5 75 29C75.5 30.5 76.5 32.5 76.5 34C76.5 35.5 56.5 47 55 46C53.5 45 54 38.5 54 38.5Z" fill="white"/>
<path d="M78 37.5C76.5 37 56.5 47.5 56.5 50C56.5 52.5 61.5 62.5 63 63C64.5 63.5 84 43.5 82.5 41.5C81 39.5 79.5 38 78 37.5Z" fill="white"/>
<path d="M65 66C65.5 64.5 84.5 44.5 85.5 44.5C86.5 44.5 91 46.5 93.5 48.5C96 50.5 79 74 76 76C73 78 64.5 67.5 65 66Z" fill="white"/>
<path d="M80.5 78C79.5 77 95.5 50.5 97 49C98.5 47.5 107.5 48 108 49C108.5 50 89 82 85.5 80.5C82 79 81.5 79 80.5 78Z" fill="white"/>
<path d="M78.5 2C81.371 1.30116 85.5 1.5 85.5 1.5L86 1.5C85.5 1.5 83.4401 3.82477 82 5.5C80.7271 6.98071 79 9.5 79 9.5C79 9.5 77.5 14 76.5 14H76C76 14 65.5 11.5 65 10C64.5 8.5 68.0431 6.54593 70.5 5C73.3241 3.22302 75.258 2.78914 78.5 2Z" stroke="black"/>
<path d="M55.5 26C54.5 25 59 14.5 61.5 14C64 13.5 74.5 16 75 18C75.5 20 74.5 24.5 74.5 25.5C74.5 26.5 56.5 27 55.5 26Z" stroke="black"/>
<path d="M54 38.5C54 38.5 53.2424 32.5 54 31C54.7576 29.5 74.5 27.5 75 29C75.5 30.5 76.5 32.5 76.5 34C76.5 35.5 56.5 47 55 46C53.5 45 54 38.5 54 38.5Z" stroke="black"/>
<path d="M78 37.5C76.5 37 56.5 47.5 56.5 50C56.5 52.5 61.5 62.5 63 63C64.5 63.5 84 43.5 82.5 41.5C81 39.5 79.5 38 78 37.5Z" stroke="black"/>
<path d="M65 66C65.5 64.5 84.5 44.5 85.5 44.5C86.5 44.5 91 46.5 93.5 48.5C96 50.5 79 74 76 76C73 78 64.5 67.5 65 66Z" stroke="black"/>
<path d="M80.5 78C79.5 77 95.5 50.5 97 49C98.5 47.5 107.5 48 108 49C108.5 50 89 82 85.5 80.5C82 79 81.5 79 80.5 78Z" stroke="black"/>
<path d="M250.509 2.52615C247.638 1.82731 243.509 2.02615 243.509 2.02615L243.009 2.02615C243.509 2.02615 245.569 4.35093 247.009 6.02615C248.282 7.50686 250.009 10.0262 250.009 10.0262C250.009 10.0262 251.509 14.5262 252.509 14.5262H253.009C253.009 14.5262 263.509 12.0262 264.009 10.5262C264.509 9.02615 260.966 7.07208 258.509 5.52615C255.685 3.74917 253.751 3.31529 250.509 2.52615Z" fill="white"/>
<path d="M273.509 26.5262C274.509 25.5262 270.009 15.0262 267.509 14.5262C265.009 14.0262 254.509 16.5262 254.009 18.5262C253.509 20.5262 254.51 25.0262 254.509 26.0262C254.509 27.0262 272.509 27.5262 273.509 26.5262Z" fill="white"/>
<path d="M275.009 39.0262C275.009 39.0262 275.767 33.0262 275.009 31.5262C274.252 30.0262 254.509 28.0262 254.009 29.5262C253.509 31.0262 252.509 33.0262 252.509 34.5262C252.509 36.0262 272.509 47.5262 274.009 46.5262C275.509 45.5262 275.009 39.0262 275.009 39.0262Z" fill="white"/>
<path d="M251.009 38.0262C252.509 37.5262 272.509 48.0262 272.509 50.5262C272.509 53.0262 267.509 63.0262 266.009 63.5262C264.509 64.0262 245.009 44.0262 246.509 42.0262C248.009 40.0262 249.509 38.5262 251.009 38.0262Z" fill="white"/>
<path d="M264.009 66.5262C263.509 65.0262 244.509 45.0262 243.509 45.0262C242.509 45.0262 238.009 47.0262 235.509 49.0262C233.009 51.0262 250.009 74.5262 253.009 76.5262C256.009 78.5262 264.509 68.0262 264.009 66.5262Z" fill="white"/>
<path d="M248.509 78.5262C249.509 77.5262 233.509 51.0262 232.009 49.5262C230.509 48.0262 221.509 48.5262 221.009 49.5262C220.509 50.5262 240.009 82.5262 243.509 81.0262C247.009 79.5262 247.509 79.5262 248.509 78.5262Z" fill="white"/>
<path d="M250.509 2.52615C247.638 1.82731 243.509 2.02615 243.509 2.02615L243.009 2.02615C243.509 2.02615 245.569 4.35093 247.009 6.02615C248.282 7.50686 250.009 10.0262 250.009 10.0262C250.009 10.0262 251.509 14.5262 252.509 14.5262H253.009C253.009 14.5262 263.509 12.0262 264.009 10.5262C264.509 9.02615 260.966 7.07208 258.509 5.52615C255.685 3.74917 253.751 3.31529 250.509 2.52615Z" stroke="black"/>
<path d="M273.509 26.5262C274.509 25.5262 270.009 15.0262 267.509 14.5262C265.009 14.0262 254.509 16.5262 254.009 18.5262C253.509 20.5262 254.51 25.0262 254.509 26.0262C254.509 27.0262 272.509 27.5262 273.509 26.5262Z" stroke="black"/>
<path d="M275.009 39.0262C275.009 39.0262 275.767 33.0262 275.009 31.5262C274.252 30.0262 254.509 28.0262 254.009 29.5262C253.509 31.0262 252.509 33.0262 252.509 34.5262C252.509 36.0262 272.509 47.5262 274.009 46.5262C275.509 45.5262 275.009 39.0262 275.009 39.0262Z" stroke="black"/>
<path d="M251.009 38.0262C252.509 37.5262 272.509 48.0262 272.509 50.5262C272.509 53.0262 267.509 63.0262 266.009 63.5262C264.509 64.0262 245.009 44.0262 246.509 42.0262C248.009 40.0262 249.509 38.5262 251.009 38.0262Z" stroke="black"/>
<path d="M264.009 66.5262C263.509 65.0262 244.509 45.0262 243.509 45.0262C242.509 45.0262 238.009 47.0262 235.509 49.0262C233.009 51.0262 250.009 74.5262 253.009 76.5262C256.009 78.5262 264.509 68.0262 264.009 66.5262Z" stroke="black"/>
<path d="M248.509 78.5262C249.509 77.5262 233.509 51.0262 232.009 49.5262C230.509 48.0262 221.509 48.5262 221.009 49.5262C220.509 50.5262 240.009 82.5262 243.509 81.0262C247.009 79.5262 247.509 79.5262 248.509 78.5262Z" stroke="black"/>
<path d="M7.5 80H3.5L3 89.5H6L7.5 80Z" fill="white"/>
<path d="M14.5 81L11 80.5L10 90L13.5 90.5L14.5 81Z" fill="white"/>
<path d="M22.5 82.5L18.5 82L17 91.5L20.5 92L22.5 82.5Z" fill="white"/>
<path d="M30 84.5L26 83.5L24 93L27 94L30 84.5Z" fill="white"/>
<path d="M37 87L33.5 86L30.5 95L34 96L37 87Z" fill="white"/>
<path d="M44.5 89.5L40.5 88L37.5 97.5L41 98.5L44.5 89.5Z" fill="white"/>
<path d="M51.5 92.5L47.5 90.5L44 99.5L47.5 101L51.5 92.5Z" fill="white"/>
<path d="M57.5 95L54.5 93.5L51 102.5L53 103.5L57.5 95Z" fill="white"/>
<path d="M7.5 80H3.5L3 89.5H6L7.5 80Z" stroke="black"/>
<path d="M14.5 81L11 80.5L10 90L13.5 90.5L14.5 81Z" stroke="black"/>
<path d="M22.5 82.5L18.5 82L17 91.5L20.5 92L22.5 82.5Z" stroke="black"/>
<path d="M30 84.5L26 83.5L24 93L27 94L30 84.5Z" stroke="black"/>
<path d="M37 87L33.5 86L30.5 95L34 96L37 87Z" stroke="black"/>
<path d="M44.5 89.5L40.5 88L37.5 97.5L41 98.5L44.5 89.5Z" stroke="black"/>
<path d="M51.5 92.5L47.5 90.5L44 99.5L47.5 101L51.5 92.5Z" stroke="black"/>
<path d="M57.5 95L54.5 93.5L51 102.5L53 103.5L57.5 95Z" stroke="black"/>
<path d="M320.957 80H324.957L325.457 89.5H322.457L320.957 80Z" fill="white"/>
<path d="M313.957 81L317.457 80.5L318.457 90L314.957 90.5L313.957 81Z" fill="white"/>
<path d="M305.957 82.5L309.957 82L311.457 91.5L307.957 92L305.957 82.5Z" fill="white"/>
<path d="M298.457 84.5L302.457 83.5L304.457 93L301.457 94L298.457 84.5Z" fill="white"/>
<path d="M291.457 87L294.957 86L297.957 95L294.457 96L291.457 87Z" fill="white"/>
<path d="M283.957 89.5L287.957 88L290.957 97.5L287.457 98.5L283.957 89.5Z" fill="white"/>
<path d="M276.957 92.5L280.957 90.5L284.457 99.5L280.957 101L276.957 92.5Z" fill="white"/>
<path d="M270.957 95L273.957 93.5L277.457 102.5L275.457 103.5L270.957 95Z" fill="white"/>
<path d="M320.957 80H324.957L325.457 89.5H322.457L320.957 80Z" stroke="black"/>
<path d="M313.957 81L317.457 80.5L318.457 90L314.957 90.5L313.957 81Z" stroke="black"/>
<path d="M305.957 82.5L309.957 82L311.457 91.5L307.957 92L305.957 82.5Z" stroke="black"/>
<path d="M298.457 84.5L302.457 83.5L304.457 93L301.457 94L298.457 84.5Z" stroke="black"/>
<path d="M291.457 87L294.957 86L297.957 95L294.457 96L291.457 87Z" stroke="black"/>
<path d="M283.957 89.5L287.957 88L290.957 97.5L287.457 98.5L283.957 89.5Z" stroke="black"/>
<path d="M276.957 92.5L280.957 90.5L284.457 99.5L280.957 101L276.957 92.5Z" stroke="black"/>
<path d="M270.957 95L273.957 93.5L277.457 102.5L275.457 103.5L270.957 95Z" stroke="black"/>
<path d="M226.619 127.624L229.868 125.292L235.814 132.718L233.377 134.467L226.619 127.624Z" fill="white"/>
<path d="M221.515 132.519L224.067 130.071L230.419 137.206L227.867 139.653L221.515 132.519Z" fill="white"/>
<path d="M215.891 138.402L218.849 135.663L225.607 142.506L223.055 144.953L215.891 138.402Z" fill="white"/>
<path d="M210.964 144.4L213.631 141.256L220.795 147.807L218.941 150.369L210.964 144.4Z" fill="white"/>
<path d="M206.736 150.513L208.996 147.66L216.681 153.222L214.421 156.075L206.736 150.513Z" fill="white"/>
<path d="M202.101 156.918L204.475 153.367L212.452 159.335L210.192 162.188L202.101 156.918Z" fill="white"/>
<path d="M198.163 163.437L200.247 159.48L208.338 164.75L206.37 168.01L198.163 163.437Z" fill="white"/>
<path d="M194.747 168.967L196.31 165.999L204.401 171.269L203.359 173.248L194.747 168.967Z" fill="white"/>
<path d="M226.619 127.624L229.868 125.292L235.814 132.718L233.377 134.467L226.619 127.624Z" stroke="black"/>
<path d="M221.515 132.519L224.067 130.071L230.419 137.206L227.867 139.653L221.515 132.519Z" stroke="black"/>
<path d="M215.891 138.402L218.849 135.663L225.607 142.506L223.055 144.953L215.891 138.402Z" stroke="black"/>
<path d="M210.964 144.4L213.631 141.256L220.795 147.807L218.941 150.369L210.964 144.4Z" stroke="black"/>
<path d="M206.736 150.513L208.996 147.66L216.681 153.222L214.421 156.075L206.736 150.513Z" stroke="black"/>
<path d="M202.101 156.918L204.475 153.367L212.452 159.335L210.192 162.188L202.101 156.918Z" stroke="black"/>
<path d="M198.163 163.437L200.247 159.48L208.338 164.75L206.37 168.01L198.163 163.437Z" stroke="black"/>
<path d="M194.747 168.967L196.31 165.999L204.401 171.269L203.359 173.248L194.747 168.967Z" stroke="black"/>
<path d="M190.867 174.795L193.016 171.422L201.297 176.105L199.685 178.635L190.867 174.795Z" fill="white"/>
<path d="M187.949 181.236L189.408 178.016L197.957 182.277L196.498 185.497L187.949 181.236Z" fill="white"/>
<path d="M184.915 188.789L186.643 185.147L195.461 188.987L194.002 192.207L184.915 188.789Z" fill="white"/>
<path d="M182.572 196.189L183.878 192.278L192.964 195.696L192.196 198.764L182.572 196.189Z" fill="white"/>
<path d="M180.919 203.436L181.956 199.947L191.159 202.253L190.121 205.742L180.919 203.436Z" fill="white"/>
<path d="M178.997 211.105L179.882 206.925L189.506 209.5L188.468 212.989L178.997 211.105Z" fill="white"/>
<path d="M177.766 218.62L178.229 214.172L187.7 216.056L187.084 219.814L177.766 218.62Z" fill="white"/>
<path d="M176.651 225.024L176.998 221.688L186.469 223.572L186.237 225.796L176.651 225.024Z" fill="white"/>
<path d="M190.867 174.795L193.016 171.422L201.297 176.105L199.685 178.635L190.867 174.795Z" stroke="black"/>
<path d="M187.949 181.236L189.408 178.016L197.957 182.277L196.498 185.497L187.949 181.236Z" stroke="black"/>
<path d="M184.915 188.789L186.643 185.147L195.461 188.987L194.002 192.207L184.915 188.789Z" stroke="black"/>
<path d="M182.572 196.189L183.878 192.278L192.964 195.696L192.196 198.764L182.572 196.189Z" stroke="black"/>
<path d="M180.919 203.436L181.956 199.947L191.159 202.253L190.121 205.742L180.919 203.436Z" stroke="black"/>
<path d="M178.997 211.105L179.882 206.925L189.506 209.5L188.468 212.989L178.997 211.105Z" stroke="black"/>
<path d="M177.766 218.62L178.229 214.172L187.7 216.056L187.084 219.814L177.766 218.62Z" stroke="black"/>
<path d="M176.651 225.024L176.998 221.688L186.469 223.572L186.237 225.796L176.651 225.024Z" stroke="black"/>
<path d="M101.892 127.595L98.6398 125.265L92.7014 132.697L95.1403 134.444L101.892 127.595Z" fill="white"/>
<path d="M107 132.484L104.446 130.039L98.101 137.18L100.655 139.625L107 132.484Z" fill="white"/>
<path d="M112.63 138.362L109.67 135.626L102.918 142.476L105.472 144.92L112.63 138.362Z" fill="white"/>
<path d="M117.563 144.355L114.893 141.213L107.736 147.771L109.592 150.331L117.563 144.355Z" fill="white"/>
<path d="M121.798 150.464L119.535 147.613L111.855 153.182L114.118 156.033L121.798 150.464Z" fill="white"/>
<path d="M126.439 156.863L124.061 153.315L116.09 159.291L118.353 162.142L126.439 156.863Z" fill="white"/>
<path d="M130.383 163.379L128.296 159.423L120.21 164.702L122.182 167.959L130.383 163.379Z" fill="white"/>
<path d="M133.805 168.905L132.24 165.938L124.154 171.217L125.197 173.195L133.805 168.905Z" fill="white"/>
<path d="M101.892 127.595L98.6398 125.265L92.7014 132.697L95.1403 134.444L101.892 127.595Z" stroke="black"/>
<path d="M107 132.484L104.446 130.039L98.101 137.18L100.655 139.625L107 132.484Z" stroke="black"/>
<path d="M112.63 138.362L109.67 135.626L102.918 142.476L105.472 144.92L112.63 138.362Z" stroke="black"/>
<path d="M117.563 144.355L114.893 141.213L107.736 147.771L109.592 150.331L117.563 144.355Z" stroke="black"/>
<path d="M121.798 150.464L119.535 147.613L111.855 153.182L114.118 156.033L121.798 150.464Z" stroke="black"/>
<path d="M126.439 156.863L124.061 153.315L116.09 159.291L118.353 162.142L126.439 156.863Z" stroke="black"/>
<path d="M130.383 163.379L128.296 159.423L120.21 164.702L122.182 167.959L130.383 163.379Z" stroke="black"/>
<path d="M133.805 168.905L132.24 165.938L124.154 171.217L125.197 173.195L133.805 168.905Z" stroke="black"/>
<path d="M137.692 174.729L135.539 171.358L127.263 176.049L128.878 178.578L137.692 174.729Z" fill="white"/>
<path d="M140.616 181.167L139.154 177.948L130.609 182.218L132.071 185.437L140.616 181.167Z" fill="white"/>
<path d="M143.658 188.717L141.926 185.077L133.112 188.925L134.574 192.144L143.658 188.717Z" fill="white"/>
<path d="M146.008 196.115L144.698 192.205L135.615 195.632L136.387 198.699L146.008 196.115Z" fill="white"/>
<path d="M147.669 203.36L146.628 199.872L137.428 202.187L138.469 205.675L147.669 203.36Z" fill="white"/>
<path d="M149.598 211.026L148.709 206.848L139.088 209.432L140.129 212.92L149.598 211.026Z" fill="white"/>
<path d="M150.837 218.541L150.37 214.093L140.901 215.987L141.52 219.744L150.837 218.541Z" fill="white"/>
<path d="M151.959 224.943L151.609 221.607L142.14 223.501L142.373 225.725L151.959 224.943Z" fill="white"/>
<path d="M137.692 174.729L135.539 171.358L127.263 176.049L128.878 178.578L137.692 174.729Z" stroke="black"/>
<path d="M140.616 181.167L139.154 177.948L130.609 182.218L132.071 185.437L140.616 181.167Z" stroke="black"/>
<path d="M143.658 188.717L141.926 185.077L133.112 188.925L134.574 192.144L143.658 188.717Z" stroke="black"/>
<path d="M146.008 196.115L144.698 192.205L135.615 195.632L136.387 198.699L146.008 196.115Z" stroke="black"/>
<path d="M147.669 203.36L146.628 199.872L137.428 202.187L138.469 205.675L147.669 203.36Z" stroke="black"/>
<path d="M149.598 211.026L148.709 206.848L139.088 209.432L140.129 212.92L149.598 211.026Z" stroke="black"/>
<path d="M150.837 218.541L150.37 214.093L140.901 215.987L141.52 219.744L150.837 218.541Z" stroke="black"/>
<path d="M151.959 224.943L151.609 221.607L142.14 223.501L142.373 225.725L151.959 224.943Z" stroke="black"/>
<path d="M70.207 91.3663C70.7447 91.6758 71.1465 92.2546 71.3713 93.1237C71.5965 93.9953 71.6313 95.1196 71.4606 96.4315C71.1194 99.0529 69.9716 102.325 68.0807 105.61C66.1899 108.895 63.9372 111.531 61.8419 113.142C60.7932 113.949 59.8036 114.483 58.9368 114.726C58.0724 114.969 57.37 114.912 56.8323 114.602C56.2946 114.293 55.8928 113.714 55.6681 112.845C55.4428 111.973 55.4081 110.849 55.5788 109.537C55.92 106.916 57.0677 103.644 58.9586 100.359C60.8494 97.074 63.1021 94.4382 65.1974 92.8265C66.2461 92.0199 67.2357 91.4853 68.1026 91.2423C68.967 91 69.6693 91.0568 70.207 91.3663Z" fill="white" stroke="black"/>
<path d="M258.25 91.3663C257.712 91.6758 257.31 92.2546 257.086 93.1237C256.86 93.9953 256.826 95.1196 256.996 96.4315C257.338 99.0529 258.485 102.325 260.376 105.61C262.267 108.895 264.52 111.531 266.615 113.142C267.664 113.949 268.653 114.483 269.52 114.726C270.385 114.969 271.087 114.912 271.625 114.602C272.162 114.293 272.564 113.714 272.789 112.845C273.014 111.973 273.049 110.849 272.878 109.537C272.537 106.916 271.389 103.644 269.498 100.359C267.607 97.074 265.355 94.4382 263.259 92.8265C262.211 92.0199 261.221 91.4853 260.354 91.2423C259.49 91 258.788 91.0568 258.25 91.3663Z" fill="white" stroke="black"/>
<path d="M83.9983 100.094C84.6478 100.522 85.105 101.243 85.3411 102.246C85.5779 103.254 85.5838 104.518 85.3478 105.965C84.8758 108.859 83.4521 112.391 81.1707 115.858C78.8894 119.325 76.2086 122.029 73.7376 123.607C72.5016 124.397 71.3383 124.892 70.3193 125.073C69.304 125.253 68.4618 125.118 67.8121 124.691C67.1624 124.263 66.7041 123.543 66.468 122.539C66.2311 121.531 66.2257 120.267 66.4618 118.819C66.9338 115.926 68.3571 112.394 70.6383 108.927C72.9197 105.46 75.601 102.755 78.072 101.177C79.3078 100.387 80.4709 99.8929 81.4898 99.7119C82.5053 99.5316 83.3486 99.6667 83.9983 100.094Z" fill="white" stroke="black"/>
<path d="M244.459 100.094C243.809 100.522 243.352 101.243 243.116 102.246C242.879 103.254 242.873 104.518 243.109 105.965C243.581 108.859 245.005 112.391 247.286 115.858C249.568 119.325 252.248 122.029 254.719 123.607C255.955 124.397 257.119 124.892 258.138 125.073C259.153 125.253 259.995 125.118 260.645 124.691C261.295 124.263 261.753 123.543 261.989 122.539C262.226 121.531 262.231 120.267 261.995 118.819C261.523 115.926 260.1 112.394 257.819 108.927C255.537 105.46 252.856 102.755 250.385 101.177C249.149 100.387 247.986 99.8929 246.967 99.7119C245.952 99.5316 245.108 99.6667 244.459 100.094Z" fill="white" stroke="black"/>
<path d="M99.0273 107.917C100.468 108.869 101.063 111.087 100.604 114.172C100.151 117.212 98.6908 120.903 96.3115 124.507C93.9323 128.11 91.1106 130.902 88.4925 132.512C85.8359 134.146 83.5621 134.47 82.1216 133.519C80.6811 132.568 80.0859 130.35 80.5454 127.265C80.9983 124.224 82.4581 120.533 84.8374 116.93C87.2168 113.327 90.0383 110.534 92.6564 108.924C95.3131 107.29 97.5868 106.966 99.0273 107.917Z" fill="white" stroke="black"/>
<path d="M229.43 107.917C227.989 108.869 227.394 111.087 227.853 114.172C228.306 117.212 229.766 120.903 232.145 124.507C234.525 128.11 237.346 130.902 239.964 132.512C242.621 134.146 244.895 134.47 246.335 133.519C247.776 132.568 248.371 130.35 247.911 127.265C247.458 124.224 245.999 120.533 243.619 116.93C241.24 113.327 238.419 110.534 235.8 108.924C233.144 107.29 230.87 106.966 229.43 107.917Z" fill="white" stroke="black"/>
<path d="M116 43.5C115.5 42 104.5 38 104.5 37.5C104.5 37.5 104 37.5 104.5 37C105 36.5 123.5 37.5 125 36.5C126.5 35.5 126 35 126 34.5C126 34 122.237 31.4289 119.5 30C116.379 28.3708 110.5 28 111 27C111.5 26 113 25.5 116 25.5C119 25.5 134 27.5 135 27.5C136 27.5 136.5 26 136.5 25C136.5 24 135.281 21.0384 134.5 18.5C133.719 15.9616 133 14.5 132.5 12C132 9.50001 142.5 20.5 143.5 21C144.5 21.5 145 20 145 20C145 20 150.5 -0.499982 151.5 2.50001C152.5 5.5 152 17.5 153 18.5C154 19.5 156 18 156 18C156 18 162.26 11.8888 167 9.00001C171.554 6.22427 180.5 1.50002 179.5 3.50001C178.5 5.5 171 12.5 170 15C169 17.5 170.5 18.5 171.5 18C172.5 17.5 173.313 17.0535 174.5 16.5C182.012 12.9975 198.5 8.5 195 11C191.5 13.5 191 14.4318 189 16.5C187 18.5682 186.5 19.5 185.5 21C184.5 22.5 185 23 187.5 22.5C190 22 212 19 209 21C206 23 198 26.5 197 28C196 29.5 196.5 30.5 198 31C199.5 31.5 204.431 30.9535 208.5 31.5C214.508 32.307 227 35 223.5 35.5C220 36 216.667 35.5068 213 37.5C211.044 38.5631 208 40 208.5 41C209 42 209.5 41.5 215 48C220.5 54.5 221.468 60.5268 226.5 68C226.5 68 231.207 75.4008 235 79.5C238.855 83.6664 247 88.5 246 89C245 89.5 235.5 85.5 235 86C234.5 86.5 235 89.6569 235 92C235 96.2958 236.5 101.5 235 103C233.5 104.5 229.015 102.697 226.5 105C223.422 107.819 224.263 111.333 224.5 115.5C224.683 118.715 227.264 120.372 226.5 123.5C225.648 126.987 222.476 127.401 220 130C208.658 141.903 203.152 149.519 194.5 163.5C187.56 174.713 183.932 181.27 179 193.5C174.865 203.752 173 220.5 170.5 220.5C168 220.5 166.295 218.956 163.5 219C160.895 219.041 158 220.5 157 220.5C156 220.5 152.958 203.76 149 193.5C144.286 181.279 140.789 174.702 134 163.5C127.259 152.377 123.16 146.205 114.5 136.5C109.72 131.143 102.5 125 101.5 123.5C100.5 122 104.551 118.881 105 115.5C105.524 111.552 105.86 108.271 103 105.5C100.915 103.48 98.8936 102.771 95.9999 103C93.9034 103.166 91.9997 105.5 90.9999 105C90 104.5 93 92.5 91.4999 91C89.9997 89.5 78.9997 94 79.4999 92C80 90 94.9527 78.742 102 68C106.79 60.6986 111 49 112 48C113 47 116.638 47.1075 116.5 45C116.459 44.3839 116.5 45 116 43.5Z" fill="white" stroke="black"/>
<circle cx="165" cy="84" r="19.5" fill="black" stroke="black"/>
<circle cx="170.5" cy="93.5" r="5.5" fill="white"/>
<circle cx="169.5" cy="83.5" r="32.25" stroke="black" stroke-width="4.5"/>
<path d="M134.5 57.5C134.129 56.8129 134.302 56.2555 134.5 55.5C134.817 54.2906 135.661 53.9272 136.5 53C138.832 50.422 140.575 49.379 143.5 47.5C146.806 45.3761 152.5 43 152.5 43C152.5 43 154.754 41.9043 156 42.5C156.747 42.8574 157.473 43.172 157.5 44C157.523 44.7037 156.944 44.9539 156.5 45.5C154.46 48.0069 151.816 47.4141 149 49C145.696 50.8602 143.855 52.0056 141 54.5C139.336 55.9534 138 58 137 58.5C136 59 135 58.425 134.5 57.5Z" fill="black" stroke="black"/>
<path d="M204.727 59.4069C205.191 58.4831 204.975 57.7336 204.727 56.7178C204.331 55.0917 203.277 54.603 202.229 53.3564C199.316 49.8901 197.14 48.4878 193.487 45.9613C189.357 43.1056 182.246 39.9108 182.246 39.9108C182.246 39.9108 179.43 38.4375 177.874 39.2385C176.941 39.7191 176.034 40.1421 176.001 41.2553C175.972 42.2015 176.695 42.538 177.25 43.2722C179.798 46.6429 183.1 45.8458 186.617 47.9782C190.743 50.4794 193.043 52.0194 196.609 55.3732C198.687 57.3275 200.356 60.0792 201.605 60.7515C202.854 61.4238 204.103 60.6507 204.727 59.4069Z" fill="black" stroke="black"/>
<path d="M109 82.5C109.749 82.7951 110.262 82.3228 111 82C112.145 81.4986 112.5 80.5 113.5 80C114.5 79.5 115.269 79.0947 116.5 79C118.105 78.8765 120.5 80 120.5 80C120.5 80 122.772 81.0153 124 82C124.862 82.6909 125.219 83.219 126 84C126.781 84.781 126.395 86.2239 127.5 86.5C127.879 86.5947 128.5 86.5 128.5 86.5C128.5 86.5 130 86 130.5 85.5C131 85 130.167 83.3333 129.5 82.5C128.833 81.6667 127.136 79.0287 125 77.5C123.081 76.127 121 75 119.5 75C118 75 115.405 75.0993 113 76C110.867 76.7986 108.5 77.5 108 79C107.5 80.5 107.526 80.6466 108 81.5C108.268 81.9828 108.486 82.2976 109 82.5Z" fill="black" stroke="black"/>
<path d="M203.458 100.072C204.002 100.564 204.591 100.304 205.324 100.244C206.461 100.152 207.083 99.3751 208.097 99.2393C209.11 99.1034 209.895 98.9804 210.976 99.2752C212.385 99.6596 214.069 101.393 214.069 101.393C214.069 101.393 215.682 102.992 216.415 104.243C216.929 105.121 217.065 105.7 217.482 106.633C217.898 107.566 217.108 108.727 217.962 109.312C218.255 109.512 218.815 109.619 218.815 109.619C218.815 109.619 220.255 109.637 220.841 109.348C221.428 109.058 221.25 107.323 220.948 106.379C220.645 105.435 220.041 102.573 218.708 100.56C217.51 98.7517 216.094 97.1118 214.815 96.6503C213.535 96.1888 211.289 95.4786 208.949 95.5376C206.874 95.5899 204.63 95.4836 203.724 96.6603C202.818 97.8369 202.793 97.9748 202.924 98.8777C202.999 99.3884 203.084 99.7347 203.458 100.072Z" fill="black" stroke="black"/>
<rect x="161.5" y="222.5" width="5" height="36" rx="0.5" fill="white" stroke="black"/>
<path d="M170.5 240.5C169.838 240.5 170 225.5 170.5 224.5C171 223.5 177 227.5 179 230.5C181 233.5 181.73 234.542 182.5 237.5C183.435 241.09 183.45 243.414 182.5 247C181.65 250.209 178.5 254.5 178.5 254.5C178.5 254.5 178 255.5 177 255.5C176 255.5 176 240.5 175.5 240.5H170.5Z" fill="white" stroke="black"/>
<path d="M157.707 240.157C158.369 240.157 158.207 225.157 157.707 224.157C157.207 223.157 151.207 227.157 149.207 230.157C147.207 233.157 146.476 234.199 145.707 237.157C144.772 240.747 144.757 243.07 145.707 246.657C146.556 249.865 149.707 254.157 149.707 254.157C149.707 254.157 150.207 255.157 151.207 255.157C152.207 255.157 152.207 240.157 152.707 240.157H157.707Z" fill="white" stroke="black"/>
<path d="M156 244H157.5V262.5H170.5V244H172.5L180 310.5L176 315H152L148.5 311L156 244Z" fill="white" stroke="black"/>
<path d="M121 88C120.063 88.703 119 87 118 88C117 89 119.033 91.7273 120 94C122.099 98.9336 124.054 101.392 127.5 105.5C132.851 111.879 136.737 114.931 144 119C151.219 123.045 155.811 124.813 164 126C174.691 127.55 181.335 126.657 191.5 123C197.747 120.753 201.266 119.084 206.5 115C208.788 113.214 212 110.5 212 110C212 109.5 211 109.5 211 109.5C211 109.5 209.204 108.585 209 107.5C208.805 106.467 209.11 105.56 210 105C211.005 104.368 211.925 104.995 213 105.5C214.629 106.266 215 107 216 109C217 111 216.062 113.921 215.5 117C214.167 124.302 211.363 127.995 207 134C202.374 140.368 199.078 143.678 192.5 148C186.949 151.647 183.399 153.221 177 155C170.56 156.79 166.672 157.416 160 157C152.957 156.561 148.936 155.393 142.5 152.5C133.737 148.562 129.285 144.767 123 137.5C118.18 131.927 115.713 128.351 113 121.5C110.785 115.907 109.851 112.505 109.5 106.5C109.167 100.817 109.5 97.5 111 92C112.5 86.5 114 83.9 116 83.5C118 83.1 118.63 82.7494 120 83.5C121.096 84.1008 122.009 84.7498 122 86C121.993 86.8732 121.699 87.4761 121 88Z" fill="black" stroke="black"/>
<path d="M134.5 117.5C135 116.5 128.5 110.5 127 110.5C125.5 110.5 122.5 120.5 122.5 120.5C122.5 120.5 122 123.5 123 124C124 124.5 125 124.5 126.5 124C128 123.5 134 118.5 134.5 117.5Z" fill="white"/>
<path d="M152.576 127.741C152.784 126.643 144.892 122.646 143.449 123.056C142.006 123.465 141.851 133.904 141.851 133.904C141.851 133.904 142.189 136.927 143.288 137.135C144.386 137.343 145.348 137.07 146.655 136.179C147.961 135.288 152.368 128.84 152.576 127.741Z" fill="white"/>
<path d="M191.481 127.778C191.04 126.724 181.874 128.635 180.844 129.935C179.815 131.235 185.595 140.044 185.595 140.044C185.595 140.044 187.604 142.34 188.682 141.784C189.761 141.227 190.447 140.36 191.085 138.749C191.723 137.138 191.922 128.833 191.481 127.778Z" fill="white"/>
<path fill-rule="evenodd" clip-rule="evenodd" d="M161.546 145.924C161.329 145.797 161.104 145.674 160.872 145.549C160.434 145.311 159.974 145.062 159.507 144.743C159.44 144.698 159.374 144.653 159.31 144.609C157.724 143.525 156.734 142.85 154.886 142.352C152.355 141.67 150.661 142.091 148.349 142.666C147.979 142.758 147.592 142.854 147.184 142.95C146.92 143.012 146.63 143.078 146.326 143.147C144.274 143.614 141.602 144.222 142.05 144.743L143.076 145.939L150.265 149.526C150.265 149.526 153.174 150.721 153.859 150.721C153.859 150.721 156.339 151.574 157.966 151.917C158.54 152.038 159.166 152.219 159.788 152.399C160.398 152.575 161.004 152.751 161.549 152.866C162.09 153.972 171.634 152.995 172.738 151.769C173.848 150.537 168.002 140.806 168.002 140.806C168.002 140.806 165.952 138.216 164.808 138.674C163.665 139.133 162.925 139.954 162.218 141.55C161.934 142.192 161.698 143.963 161.546 145.924Z" fill="white"/>
<path d="M0.499956 101.5C-4.69089e-05 101.5 -8.67844e-05 99 0.499956 98.5C1 98 5.08566 98.6484 7.99996 99C13.3617 99.647 16.2628 100.681 21.5 102C26.4158 103.238 29.162 103.986 34 105.5C36.9464 106.422 38.6334 106.853 41.5 108C45.5539 109.622 50.5 112 51.5 113C52.4999 114 52.9999 116.5 53 117C53 117.5 49.9677 115.445 48 114.5C42.6384 111.924 39.6202 110.448 34 108.5C29.2103 106.84 26.4261 106.196 21.5 105C16.8482 103.87 14.2325 103.22 9.49995 102.5C6.0038 101.968 0.99996 101.5 0.499956 101.5Z" fill="white"/>
<path d="M327.5 101.183C328 101.183 328 98.6825 327.5 98.1825C327 97.6825 322.914 98.3309 320 98.6825C314.638 99.3295 311.737 100.364 306.5 101.683C301.584 102.92 298.838 103.668 294 105.183C291.054 106.105 289.367 106.536 286.5 107.683C282.446 109.304 277.5 111.682 276.5 112.683C275.5 113.683 275 116.183 275 116.683C275 117.182 278.032 115.128 280 114.183C285.362 111.607 288.38 110.131 294 108.183C298.79 106.522 301.574 105.879 306.5 104.683C311.152 103.553 313.767 102.902 318.5 102.183C321.996 101.651 327 101.183 327.5 101.183Z" fill="white"/>
<path d="M62.2848 122.21C62.8279 121.757 62.148 118.181 62.1931 117.683C62.2383 117.185 57.7617 118.27 57.7193 118.737C57.677 119.205 61.7417 122.663 62.2848 122.21Z" fill="white"/>
<path d="M265.809 122.034C265.266 121.581 265.946 118.005 265.9 117.507C265.855 117.01 270.332 118.094 270.374 118.561C270.417 119.029 266.352 122.487 265.809 122.034Z" fill="white"/>
<path d="M76.2558 132.613C76.8556 132.099 76.3314 127.889 76.4065 127.307C76.4816 126.725 71.6825 127.862 71.6121 128.409C71.5416 128.955 75.656 133.127 76.2558 132.613Z" fill="white"/>
<path d="M251.838 132.437C251.238 131.923 251.762 127.713 251.687 127.131C251.612 126.549 256.411 127.687 256.481 128.233C256.552 128.779 252.437 132.951 251.838 132.437Z" fill="white"/>
<path d="M86.5 137.5C85 136.5 81.5 137.5 81.5 137.5C81.5 137.5 84.9047 140.801 87 143C95.5409 151.965 99.5574 157.748 106.5 168C112.49 176.845 115.781 181.917 120.5 191.5C124.601 199.828 129.5 213.5 129.5 213.5L138 241.5C138 241.5 140 256.5 140.5 264C141 271.5 142 273.5 142 284.5V314.5H148L145 312C145 312 145.073 302.553 145 296.5C144.864 285.169 144.999 278.788 144 267.5C142.693 252.727 141.562 244.397 138 230C135.345 219.269 133.617 213.259 129.5 203C125.532 193.113 122.818 187.732 117.5 178.5C111.606 168.27 107.819 162.764 100.5 153.5C95.3532 146.985 88 138.5 86.5 137.5Z" fill="white"/>
<path d="M241.5 138.444C243 137.444 246.5 138.444 246.5 138.444C246.5 138.444 243.095 141.745 241 143.944C232.459 152.909 228.443 158.692 221.5 168.944C215.51 177.79 212.219 182.861 207.5 192.444C203.399 200.772 198.5 214.444 198.5 214.444L190 242.444C190 242.444 188 257.444 187.5 264.944C187 272.444 186 274.444 186 285.444V315.444H180L183 312.944C183 312.944 182.927 303.497 183 297.444C183.136 286.113 183.001 279.732 184 268.444C185.307 253.671 186.438 245.341 190 230.944C192.655 220.214 194.383 214.204 198.5 203.944C202.468 194.057 205.182 188.676 210.5 179.444C216.394 169.214 220.181 163.709 227.5 154.444C232.647 147.929 240 139.444 241.5 138.444Z" fill="white"/>
</svg>
